<svg xmlns="http://www.w3.org/2000/svg" width="16" height="16" viewBox="0 0 16 16">
  <path fill="#CED0D6" d="M 6.6426,12.1015 5.9238,10.0234 H 2.8145 L 2.0957,12.1015 H 0.3926 L 3.3613,3.9609 h 2.0156 l 2.9532,8.1406 z M 4.3769,5.2109 4.3301,5.3359 Q 4.2832,5.539 4.1895,5.8046 4.1113,6.0703 3.2051,8.7421 H 5.5488 L 4.7363,6.3984 4.4863,5.6015 Z"/>
  <path fill="#CED0D6" d="m 15.4101,8.9453 q 0,1.5468 -0.625,2.4062 -0.625,0.8594 -1.7812,0.8594 -0.6563,0 -1.1407,-0.2813 -0.4843,-0.2969 -0.75,-0.8281 h -0.0156 q 0,0.2031 -0.0313,0.5625 -0.0156,0.3437 -0.0468,0.4375 H 9.4413 Q 9.4882,11.5703 9.4882,10.6796 V 3.5234 h 1.625 V 5.914 L 11.082,6.9296 h 0.0312 q 0.5469,-1.2031 2,-1.2031 1.1094,0 1.7031,0.8438 0.5938,0.8437 0.5938,2.375 z m -1.7031,0 q 0,-1.0626 -0.3125,-1.5782 -0.2969,-0.5156 -0.9532,-0.5156 -0.6718,0 -1.0156,0.5625 -0.3437,0.5469 -0.3437,1.5937 0,0.9844 0.3437,1.5469 0.3438,0.5469 1,0.5469 1.2813,0 1.2813,-2.1562 z"/>
</svg>