<svg xmlns="http://www.w3.org/2000/svg" width="16" height="16" viewBox="0 0 16 16">
  <path fill="#AFB1B3" d="M 6.9763,12.1015 6.2575,10.0234 H 3.1482 L 2.4294,12.1015 H 0.7263 L 3.695,3.9609 h 2.0156 l 2.9532,8.1406 z M 4.7106,5.2109 4.6638,5.3359 Q 4.6169,5.539 4.5232,5.8046 4.445,6.0703 3.5388,8.7421 H 5.8825 L 5.07,6.3984 4.82,5.6015 Z"/>
  <path fill="#AFB1B3" d="m 9.5136719,5.671875 v 6.429687 h 3.2148441 c 0.772533,0 1.386696,-0.158996 1.833984,-0.486328 0.453035,-0.331467 0.677734,-0.793823 0.677734,-1.384765 0,-0.448539 -0.142171,-0.8173747 -0.43164,-1.0957034 -0.235087,-0.2350873 -0.609166,-0.3481876 -1.019532,-0.4296875 0.30966,-0.09574 0.600961,-0.2068536 0.775391,-0.4179687 0.212377,-0.2682429 0.316406,-0.5898352 0.316406,-0.9628906 0,-0.5493602 -0.209099,-0.9673842 -0.632812,-1.2460938 -0.405582,-0.2740361 -1.005487,-0.40625 -1.785156,-0.40625 z m 1.4921871,1.1484375 h 1.394532 c 0.344926,0 0.588173,0.061115 0.748047,0.1738281 0.14189,0.091799 0.224609,0.2599079 0.224609,0.5175782 0,0.2249996 -0.07723,0.3939767 -0.214844,0.5058593 C 13.013584,8.1260422 12.771616,8.1875 12.416016,8.1875 h -1.410157 z m 0,2.515625 h 1.566407 c 0.812042,0 1.175781,0.2682601 1.175781,0.7851565 0,0.277499 -0.09158,0.483237 -0.263672,0.61914 -0.164958,0.137397 -0.447779,0.212891 -0.865234,0.212891 h -1.613282 z"/>
</svg>