<svg xmlns="http://www.w3.org/2000/svg" width="16" height="16" viewBox="0 0 16 16">
  <path fill="#CED0D6" d="M 6.6474,12.1015 5.9286,10.0234 H 2.8193 L 2.1005,12.1015 H 0.3974 L 3.3661,3.9609 h 2.0156 l 2.9532,8.1406 z M 4.3817,5.2109 4.3349,5.3359 Q 4.288,5.539 4.1943,5.8046 4.1161,6.0703 3.2099,8.7421 H 5.5536 L 4.7411,6.3984 4.4911,5.6015 Z"/>
  <path fill="#CED0D6" d="m 9.2851562,5.109375 v 6.992187 h 3.5039058 c 0.840103,0 1.502472,-0.173431 1.982422,-0.52539 0.483389,-0.35448 0.72461,-0.855402 0.72461,-1.496094 0,-0.4802492 -0.148884,-0.8685911 -0.451172,-1.1601561 -0.278306,-0.2781779 -0.702787,-0.4248799 -1.208984,-0.5 C 14.227076,8.3172823 14.554295,8.1626714 14.75,7.9082031 14.976848,7.6273564 15.089844,7.2905751 15.089844,6.8945312 15.089845,6.3060668 14.868584,5.8590548 14.425781,5.5566406 13.987634,5.2574067 13.341027,5.109375 12.492188,5.109375 Z m 1.5390628,1.1796875 h 1.589843 c 0.391022,1e-7 0.669622,0.064891 0.847657,0.1933594 0.178711,0.1128604 0.273437,0.3092377 0.273437,0.5976562 -1e-6,0.2783486 -0.09066,0.4861486 -0.261718,0.6191407 -0.165938,0.1268893 -0.441532,0.1894531 -0.84375,0.1894531 h -1.605469 z m 0,2.7636719 h 1.777343 c 0.908818,0 1.339844,0.3114371 1.339844,0.9199218 -1e-6,0.3196588 -0.104904,0.5557168 -0.308594,0.7109378 -0.196112,0.15689 -0.515719,0.238281 -0.96875,0.238281 h -1.839843 z"/>
</svg>