<svg xmlns="http://www.w3.org/2000/svg" width="16" height="16" viewBox="0 0 16 16">
  <path fill="#AFB1B3" d="M 13.5 1.5 L 11.234375 3.765625 C 10.254724 3.2746234 9.1583701 3 8 3 C 4.8181882 3 2.1009069 5.0733392 1 8 C 1.5227215 9.3896074 2.4107671 10.586736 3.5390625 11.460938 L 1.5 13.5 L 2.5 14.5 L 4.765625 12.234375 L 6.0761719 10.923828 L 7.1777344 9.8222656 L 9.8222656 7.1777344 L 10.923828 6.0761719 L 12.460938 4.5390625 L 14.5 2.5 L 13.5 1.5 z M 8 4.5 C 8.710335 4.5 9.3698027 4.7140829 9.921875 5.078125 L 8.8222656 6.1777344 C 8.5716608 6.0644835 8.2936153 6 8 6 C 6.8933355 6 6 6.8933355 6 8 C 6 8.2936153 6.0644835 8.5716608 6.1777344 8.8222656 L 5.078125 9.921875 C 4.7140829 9.3698027 4.5 8.710335 4.5 8 C 4.5 6.0680038 6.0680038 4.5 8 4.5 z M 13 5 L 11.261719 6.7382812 C 11.413618 7.1302139 11.5 7.5546323 11.5 8 C 11.5 9.9319962 9.9319962 11.5 8 11.5 C 7.5546323 11.5 7.1302139 11.413618 6.7382812 11.261719 L 5.4609375 12.539062 C 6.2539447 12.837571 7.108793 13 8 13 C 11.181812 13 13.899093 10.926661 15 8 C 14.563713 6.8401731 13.872301 5.8158618 13 5 z M 10 8 L 8 10 C 9.1066645 10 10 9.1066645 10 8 z"/>
</svg>