<svg xmlns="http://www.w3.org/2000/svg" width="16" height="16" viewBox="0 0 16 16">
  <path fill="#AFB1B3" d="m 4.6289,12.8039 q -0.9062,0 -1.4218,-0.4844 -0.5,-0.5 -0.5,-1.3906 0,-0.9688 0.625,-1.4844 Q 3.9727,8.9289 5.1758,8.9289 L 6.5195,8.8976 V 8.5851 Q 6.5195,7.9757 6.3008,7.6789 6.0977,7.3664 5.6133,7.3664 5.1602,7.3664 4.9414,7.5851 4.7383,7.7883 4.6914,8.257 L 2.9883,8.1789 Q 3.1445,7.257 3.8164,6.7883 4.5039,6.3195 5.6758,6.3195 q 1.1875,0 1.8281,0.5938 0.6406,0.5781 0.6406,1.6562 v 2.2812 q 0,0.5157 0.125,0.7188 0.125,0.2031 0.3907,0.2031 0.1875,0 0.3593,-0.0312 v 0.875 q -0.1406,0.0312 -0.2656,0.0625 -0.1094,0.0312 -0.2187,0.0468 -0.1094,0.0157 -0.25,0.0157 -0.125,0.0156 -0.2969,0.0156 -0.6094,0 -0.9062,-0.2969 -0.2969,-0.2968 -0.3594,-0.875 H 6.6914 q -0.6719,1.2188 -2.0625,1.2188 z m 1.8906,-3 H 5.6914 q -0.5625,0.0312 -0.7969,0.1406 -0.2343,0.0938 -0.3593,0.2969 -0.125,0.2031 -0.125,0.5625 0,0.4375 0.2031,0.6562 0.2031,0.2188 0.5469,0.2188 0.375,0 0.6875,-0.2032 0.3281,-0.2187 0.5,-0.5781 0.1718,-0.375 0.1718,-0.7812 z"/>
  <path fill="#3592C4" d="m 10.8346,7.1151 q -0.5937,0 -0.9375,-0.3125 Q 9.569,6.4745 9.569,5.8807 q 0,-0.625 0.4062,-0.9531 0.4219,-0.3281 1.2032,-0.3437 l 0.875,-0.0157 V 4.3651 q 0,-0.4062 -0.1407,-0.5937 -0.125,-0.1875 -0.4531,-0.1875 -0.2812,0 -0.4219,0.1406 -0.1406,0.125 -0.1718,0.4219 L 9.7565,4.0995 q 0.1094,-0.5938 0.5469,-0.8906 0.4375,-0.3125 1.2031,-0.3125 0.7812,0 1.1875,0.375 0.4219,0.375 0.4219,1.0781 v 1.4844 q 0,0.3437 0.0781,0.4687 0.0781,0.125 0.25,0.125 0.125,0 0.2344,-0.0156 V 6.9901 Q 13.5846,7.0057 13.5065,7.0214 13.444,7.037 13.3659,7.0526 13.2877,7.0682 13.194,7.0682 13.1159,7.0839 13.0065,7.0839 12.6002,7.0839 12.4127,6.8964 12.2252,6.6932 12.194,6.3182 H 12.1627 Q 11.7252,7.1151 10.8346,7.1151 Z M 12.0534,5.1464 11.5221,5.162 q -0.375,0.0156 -0.5312,0.0781 -0.1563,0.0625 -0.2344,0.2031 -0.0781,0.1407 -0.0781,0.3594 0,0.2969 0.125,0.4375 0.1406,0.1406 0.3593,0.1406 0.25,0 0.4532,-0.1406 0.2031,-0.1406 0.3125,-0.375 0.125,-0.2344 0.125,-0.5 z"/>
</svg>