<svg xmlns="http://www.w3.org/2000/svg" width="16" height="16" viewBox="0 0 16 16">
  <path fill="#AFB1B3" d="m 3.1088,12.8039 q -0.9062,0 -1.4218,-0.4844 -0.5,-0.5 -0.5,-1.3906 0,-0.9688 0.625,-1.4844 Q 2.4526,8.9289 3.6557,8.9289 L 4.9994,8.8976 V 8.5851 Q 4.9994,7.9757 4.7807,7.6789 4.5776,7.3664 4.0932,7.3664 3.6401,7.3664 3.4213,7.5851 3.2182,7.7883 3.1713,8.257 L 1.4682,8.1789 Q 1.6244,7.257 2.2963,6.7883 2.9838,6.3195 4.1557,6.3195 q 1.1875,0 1.8281,0.5938 0.6406,0.5781 0.6406,1.6562 v 2.2812 q 0,0.5157 0.125,0.7188 0.125,0.2031 0.3907,0.2031 0.1875,0 0.3593,-0.0312 v 0.875 q -0.1406,0.0312 -0.2656,0.0625 -0.1094,0.0312 -0.2187,0.0468 -0.1094,0.0157 -0.25,0.0157 -0.125,0.0156 -0.2969,0.0156 -0.6094,0 -0.9062,-0.2969 -0.2969,-0.2968 -0.3594,-0.875 H 5.1713 q -0.6719,1.2188 -2.0625,1.2188 z m 1.8906,-3 H 4.1713 q -0.5625,0.0312 -0.7969,0.1406 -0.2343,0.0938 -0.3593,0.2969 -0.125,0.2031 -0.125,0.5625 0,0.4375 0.2031,0.6562 0.2031,0.2188 0.5469,0.2188 0.375,0 0.6875,-0.2032 0.3281,-0.2187 0.5,-0.5781 0.1718,-0.375 0.1718,-0.7812 z"/>
  <path fill="#AFB1B3" d="M 9.3145,7.1151 Q 8.7208,7.1151 8.377,6.8026 8.0489,6.4745 8.0489,5.8807 8.0489,5.2557 8.4551,4.9276 8.877,4.5995 9.6583,4.5839 l 0.875,-0.0157 V 4.3651 q 0,-0.4062 -0.1407,-0.5937 -0.125,-0.1875 -0.4531,-0.1875 -0.2812,0 -0.4219,0.1406 Q 9.377,3.8495 9.3458,4.1464 L 8.2364,4.0995 Q 8.3458,3.5057 8.7833,3.2089 9.2208,2.8964 9.9864,2.8964 q 0.7812,0 1.1875,0.375 0.4219,0.375 0.4219,1.0781 v 1.4844 q 0,0.3437 0.0781,0.4687 0.0781,0.125 0.25,0.125 0.125,0 0.2344,-0.0156 v 0.5781 q -0.0938,0.0156 -0.1719,0.0313 -0.0625,0.0156 -0.1406,0.0312 -0.0782,0.0156 -0.1719,0.0156 -0.0781,0.0157 -0.1875,0.0157 -0.4063,0 -0.5938,-0.1875 Q 10.7051,6.6932 10.6739,6.3182 H 10.6426 Q 10.2051,7.1151 9.3145,7.1151 Z M 10.5333,5.1464 10.002,5.162 Q 9.627,5.1776 9.4708,5.2401 9.3145,5.3026 9.2364,5.4432 9.1583,5.5839 9.1583,5.8026 q 0,0.2969 0.125,0.4375 0.1406,0.1406 0.3593,0.1406 0.25,0 0.4532,-0.1406 0.2031,-0.1406 0.3125,-0.375 0.125,-0.2344 0.125,-0.5 z"/>
  <path fill="#3592C4" d="m 13.3241,3.407 q -0.375,0 -0.5937,-0.2031 -0.2188,-0.2188 -0.2188,-0.5938 0,-0.4062 0.2656,-0.625 0.2813,-0.2187 0.7813,-0.2187 l 0.5781,-0.0156 v -0.125 q 0,-0.2657 -0.0937,-0.3907 -0.0938,-0.125 -0.2969,-0.125 -0.1875,0 -0.2813,0.0938 Q 13.371,1.282 13.3554,1.4851 L 12.6366,1.4539 q 0.0625,-0.3906 0.3438,-0.5781 0.2968,-0.2032 0.7968,-0.2032 0.5,0 0.7657,0.25 0.2656,0.2344 0.2656,0.6875 v 0.9688 q 0,0.2187 0.0469,0.3125 0.0625,0.0781 0.1718,0.0781 0.0782,0 0.1563,-0.0156 v 0.375 q -0.0625,0.0156 -0.1094,0.0312 -0.0469,0 -0.0937,0 -0.0469,0.0157 -0.1094,0.0157 -0.0469,0.0156 -0.125,0.0156 -0.2656,0 -0.3906,-0.125 -0.1094,-0.125 -0.1407,-0.375 H 14.1991 Q 13.9179,3.407 13.3241,3.407 Z m 0.8125,-1.2656 h -0.3594 q -0.2343,0.0156 -0.3437,0.0625 -0.0938,0.0312 -0.1563,0.125 -0.0468,0.0781 -0.0468,0.2344 0,0.1875 0.0781,0.2812 0.0937,0.0781 0.2344,0.0781 0.1718,0 0.2968,-0.0781 0.1407,-0.0937 0.2188,-0.25 0.0781,-0.1562 0.0781,-0.3281 z"/>
</svg>