<svg xmlns="http://www.w3.org/2000/svg" width="860" height="256">
  <path fill="#FFFFFF" d="m 375.53937,169.36792 c 0,0 -16.97555,2.33045 -25.79399,2.33045 -19.80991,0 -24.15623,-16.15657 -24.15623,-42.95815 0,-28.785952 5.51157,-42.422981 23.65234,-42.422981 9.82626,0 26.29788,2.330499 26.29788,2.330499 l 0.81874,-14.64486 c 0,0 -17.29036,-3.842394 -29.95121,-3.842394 -29.44712,0 -39.93491,18.991182 -39.93491,58.579736 0,37.13175 7.81062,59.08331 39.93491,59.08331 13.82608,0 29.79378,-3.49575 29.79378,-3.49575 z m 16.29603,16.62903 h 17.98335 V 102.78886 H 391.8354 Z m -0.15735,-95.680083 h 18.29819 V 71.010896 h -18.29819 z m 56.08359,95.680083 v -57.41433 c 0,0 8.31453,-12.31436 17.29041,-12.31436 9.66879,0 12.81824,6.64536 12.81824,22.80215 v 46.92654 h 17.98335 V 134.409 c 0,-18.95951 -7.14927,-33.44692 -26.45529,-33.44692 -13.16475,0 -21.82575,11.81045 -21.82575,11.81045 l -0.15735,-9.98367 h -17.63687 v 83.20809 z m 98.49577,-13.8261 c -11.30656,0 -16.97557,-7.30669 -16.97557,-18.4556 v -2.67719 h 6.83444 c 26.29768,0 40.12375,-4.47211 40.12375,-25.28984 0,-17.63687 -11.14888,-24.6287 -30.64396,-24.6287 -24.94359,0 -34.42332,19.46364 -34.42332,45.60387 0,28.12463 10.29849,40.94269 33.76197,40.94269 15.65266,0 27.967,-5.00744 27.967,-5.00744 l -0.5039,-12.97589 c 0,0 -14.64504,2.4881 -26.14041,2.4881 z m -16.7865,-34.61218 c 0.15735,-12.97591 4.31469,-21.95175 16.12516,-21.95175 8.5034,0 12.81825,2.48811 12.81825,10.29871 0,9.82627 -6.80278,11.65304 -22.29804,11.65304 z m 90.84086,-36.43915 c -22.29802,0 -32.59654,13.47959 -32.59654,42.61184 0,27.96701 7.14908,44.09216 32.12426,44.09216 10.80244,0 22.61288,-3.14925 22.61288,-3.14925 l -0.50389,-13.66867 c 0,0 -11.1489,1.16525 -17.13293,1.16525 -15.96774,0 -18.80211,-10.45613 -18.80211,-28.43949 0,-18.14076 4.15728,-26.95919 18.80211,-26.95919 5.98403,0 17.13293,1.16542 17.13293,1.16542 l 0.50389,-13.82607 c 0,0 -11.46394,-2.992 -22.1406,-2.992 z m 37.78963,84.87743 h 17.98335 v -55.90262 c 0,0 12.31437,-7.65297 23.27441,-10.33016 v -18.80209 c -12.9757,3.14944 -23.46348,13.98351 -23.46348,13.98351 V 102.78886 H 658.1014 Z m 84.36085,-13.8261 c -11.30651,0 -16.97549,-7.30669 -16.97549,-18.4556 v -2.67719 h 6.8342 c 26.29783,0 40.12392,-4.47211 40.12392,-25.28984 0,-17.63687 -11.14913,-24.6287 -30.64397,-24.6287 -24.94357,0 -34.42354,19.46364 -34.42354,45.60387 0,28.12463 10.29873,40.94269 33.76204,40.94269 15.65282,0 27.96702,-5.00744 27.96702,-5.00744 l -0.50397,-12.97589 c 0,0 -14.6448,2.4881 -26.14021,2.4881 z m -16.78643,-34.61218 c 0.15706,-12.97591 4.31462,-21.95175 16.12509,-21.95175 8.50339,0 12.81808,2.48811 12.81808,10.29871 0,9.82627 -6.80282,11.65304 -22.29803,11.65304 z m 125.7996,-69.382198 h -17.98335 v 35.116288 c 0,0 -9.6372,-2.17324 -17.13303,-2.17324 -23.62063,0 -32.28163,15.65265 -32.28163,44.28118 0,26.95922 7.49578,42.42282 26.95921,42.42282 14.80247,0 22.45545,-11.14895 22.45545,-11.14895 l 0.34641,9.32238 h 17.63694 z m -17.98335,91.869088 c 0,0 -7.46405,12.47181 -17.29035,12.47181 -11.30651,0 -13.82616,-10.80265 -13.82616,-27.11667 0,-18.48723 3.68506,-28.97482 15.99922,-28.97482 6.80282,0 15.11729,1.66915 15.11729,1.66915 z"/>
  <g fill="#FFFFFF">
    <path d="m 127.57646,165.79289 c 0,0 -17.53249,1.88651 -25.79444,1.88651 -17.695075,0 -22.184004,-14.24705 -22.184004,-40.36686 0,-28.884632 6.212848,-39.358664 21.500974,-39.358664 8.94498,0 26.47747,2.049298 26.47747,2.049298 l 1.00841,-18.573175 c 0,0 -19.22394,-4.131074 -31.454358,-4.131074 -29.535176,0 -41.928188,17.207116 -41.928188,60.013615 0,38.64294 8.424733,60.98954 41.928188,60.98954 14.637578,0 31.291778,-3.77322 31.291778,-3.77322 z"/>
    <path d="m 174.84023,98.427908 c -22.50918,0 -33.69872,14.442322 -33.69872,44.693002 0,28.52697 8.42473,45.18117 33.17828,45.18117 12.7184,0 25.07893,-3.93581 25.07893,-3.93581 l -0.68324,-17.01205 c 0,0 -11.35212,1.0082 -17.53229,1.0082 -13.7268,0 -16.65419,-8.91249 -16.65419,-25.24151 0,-16.68667 3.41536,-24.75355 16.65419,-24.75355 6.18017,0 17.53229,1.20368 17.53229,1.20368 l 0.68324,-17.5325 c 0,0 -11.84009,-3.610632 -24.55849,-3.610632 z"/>
    <rect x="20" y="20" width="21" height="24" ry="2"/>
    <rect x="59" y="20" width="21" height="24" ry="2"/>
    <rect x="98" y="20" width="21" height="24" ry="2"/>
    <rect x="137" y="20" width="21" height="24" ry="2"/>
    <rect x="176" y="20" width="21" height="24" ry="2"/>
    <rect x="215" y="20" width="21" height="24" ry="2"/>
    <rect x="20" y="212" width="21" height="24" ry="2"/>
    <rect x="59" y="212" width="21" height="24" ry="2"/>
    <rect x="98" y="212" width="21" height="24" ry="2"/>
    <rect x="137" y="212" width="21" height="24" ry="2"/>
    <rect x="176" y="212" width="21" height="24" ry="2"/>
    <rect x="215" y="212" width="21" height="24" ry="2"/>
  </g>
</svg>
