<svg xmlns="http://www.w3.org/2000/svg" width="256" height="256">
  <path fill="#FFFFFF" d="m 39.049247,243.11751 c 0,0 -7.422474,1.01898 -11.278293,1.01898 -8.6618,0 -10.562212,-7.06439 -10.562212,-18.78326 0,-12.58653 2.409909,-18.54926 10.341879,-18.54926 4.296484,0 11.498626,1.019 11.498626,1.019 l 0.357995,-6.4034 c 0,0 -7.560137,-1.68007 -13.096035,-1.68007 -12.875615,0 -17.4613529,8.30381 -17.4613529,25.61373 0,16.23569 3.4151549,25.83391 17.4613529,25.83391 6.045395,0 13.027204,-1.5285 13.027204,-1.5285 z m 7.125372,7.27097 h 7.86314 v -36.38237 h -7.86314 z m -0.06883,-41.83569 h 8.000803 v -8.44145 h -8.000803 z m 24.522305,41.83569 v -25.10416 c 0,0 3.635485,-5.3844 7.560141,-5.3844 4.227648,0 5.604726,2.90566 5.604726,9.97014 v 20.51842 h 7.863138 v -22.5566 c 0,-8.28996 -3.125992,-14.62452 -11.56746,-14.62452 -5.756227,0 -9.543213,5.16407 -9.543213,5.16407 l -0.06883,-4.36532 h -7.711639 v 36.38237 z m 43.066826,-6.0454 c -4.94374,0 -7.42249,-3.19482 -7.42249,-8.06963 v -1.17059 h 2.98833 c 11.49854,0 17.54393,-1.95541 17.54393,-11.05787 0,-7.71164 -4.8748,-10.76879 -13.39894,-10.76879 -10.90647,0 -15.051443,8.51039 -15.051443,19.94009 0,12.29737 4.502973,17.90201 14.762273,17.90201 6.84406,0 12.22845,-2.18948 12.22845,-2.18948 l -0.22033,-5.67365 c 0,0 -6.40348,1.08791 -11.42978,1.08791 z m -7.33982,-15.13402 c 0.0688,-5.67366 1.88658,-9.59831 7.05066,-9.59831 3.71807,0 5.60472,1.08792 5.60472,4.50307 0,4.29649 -2.97449,5.09524 -9.74972,5.09524 z m 39.71979,-15.93286 c -9.74971,0 -14.25269,5.89389 -14.25269,18.63184 0,12.22845 3.1259,19.2791 14.04619,19.2791 4.72332,0 9.88738,-1.377 9.88738,-1.377 l -0.22032,-5.97656 c 0,0 -4.87481,0.5095 -7.4913,0.5095 -6.98182,0 -8.22114,-4.5719 -8.22114,-12.43504 0,-7.93197 1.81775,-11.78779 8.22114,-11.78779 2.61649,0 7.4913,0.50958 7.4913,0.50958 l 0.22032,-6.04539 c 0,0 -5.01256,-1.30824 -9.68088,-1.30824 z m 16.52335,37.11228 h 7.86314 v -24.44317 c 0,0 5.3844,-3.34623 10.17663,-4.51682 v -8.22113 c -5.67357,1.37708 -10.2593,6.11423 -10.2593,6.11423 v -5.31548 h -7.78047 z m 36.8864,-6.0454 c -4.94373,0 -7.42247,-3.19482 -7.42247,-8.06963 v -1.17059 h 2.98823 c 11.49863,0 17.54402,-1.95541 17.54402,-11.05787 0,-7.71164 -4.87491,-10.76879 -13.39894,-10.76879 -10.90647,0 -15.05154,8.51039 -15.05154,19.94009 0,12.29737 4.50307,17.90201 14.76229,17.90201 6.84413,0 12.22845,-2.18948 12.22845,-2.18948 l -0.22034,-5.67365 c 0,0 -6.40339,1.08791 -11.4297,1.08791 z m -7.3398,-15.13402 c 0.0687,-5.67366 1.88657,-9.59831 7.05064,-9.59831 3.71806,0 5.60464,1.08792 5.60464,4.50307 0,4.29649 -2.97449,5.09524 -9.74972,5.09524 z M 247.15015,198.872 h -7.86314 v 15.35444 c 0,0 -4.21383,-0.95024 -7.49131,-0.95024 -10.32803,0 -14.11502,6.84405 -14.11502,19.36175 0,11.7878 3.27749,18.54919 11.78778,18.54919 6.47231,0 9.81855,-4.87483 9.81855,-4.87483 l 0.1515,4.07617 h 7.71164 z m -7.86314,40.16935 c 0,0 -3.26365,5.45324 -7.56013,5.45324 -4.94374,0 -6.04542,-4.72341 -6.04542,-11.85664 0,-8.08346 1.61126,-12.66911 6.99557,-12.66911 2.9745,0 6.60999,0.72983 6.60999,0.72983 z"/>
  <g fill="#FFFFFF" transform="translate(128 -7.8) scale(0.694) translate(-128)">
    <path d="m 127.57646,165.79289 c 0,0 -17.53249,1.88651 -25.79444,1.88651 -17.695075,0 -22.184004,-14.24705 -22.184004,-40.36686 0,-28.884632 6.212848,-39.358664 21.500974,-39.358664 8.94498,0 26.47747,2.049298 26.47747,2.049298 l 1.00841,-18.573175 c 0,0 -19.22394,-4.131074 -31.454358,-4.131074 -29.535176,0 -41.928188,17.207116 -41.928188,60.013615 0,38.64294 8.424733,60.98954 41.928188,60.98954 14.637578,0 31.291778,-3.77322 31.291778,-3.77322 z"/>
    <path d="m 174.84023,98.427908 c -22.50918,0 -33.69872,14.442322 -33.69872,44.693002 0,28.52697 8.42473,45.18117 33.17828,45.18117 12.7184,0 25.07893,-3.93581 25.07893,-3.93581 l -0.68324,-17.01205 c 0,0 -11.35212,1.0082 -17.53229,1.0082 -13.7268,0 -16.65419,-8.91249 -16.65419,-25.24151 0,-16.68667 3.41536,-24.75355 16.65419,-24.75355 6.18017,0 17.53229,1.20368 17.53229,1.20368 l 0.68324,-17.5325 c 0,0 -11.84009,-3.610632 -24.55849,-3.610632 z"/>
    <rect x="20" y="20" width="21" height="24" ry="2"/>
    <rect x="59" y="20" width="21" height="24" ry="2"/>
    <rect x="98" y="20" width="21" height="24" ry="2"/>
    <rect x="137" y="20" width="21" height="24" ry="2"/>
    <rect x="176" y="20" width="21" height="24" ry="2"/>
    <rect x="215" y="20" width="21" height="24" ry="2"/>
    <rect x="20" y="212" width="21" height="24" ry="2"/>
    <rect x="59" y="212" width="21" height="24" ry="2"/>
    <rect x="98" y="212" width="21" height="24" ry="2"/>
    <rect x="137" y="212" width="21" height="24" ry="2"/>
    <rect x="176" y="212" width="21" height="24" ry="2"/>
    <rect x="215" y="212" width="21" height="24" ry="2"/>
  </g>
</svg>
