<svg xmlns="http://www.w3.org/2000/svg" width="256" height="256">
  <rect fill="#000000" x="12" y="12" width="232" height="232" ry="10"/>
  <g fill="#FFFFFF">
    <path d="m 127.57646,165.79289 c 0,0 -17.53249,1.88651 -25.79444,1.88651 -17.695075,0 -22.184004,-14.24705 -22.184004,-40.36686 0,-28.884632 6.212848,-39.358664 21.500974,-39.358664 8.94498,0 26.47747,2.049298 26.47747,2.049298 l 1.00841,-18.573175 c 0,0 -19.22394,-4.131074 -31.454358,-4.131074 -29.535176,0 -41.928188,17.207116 -41.928188,60.013615 0,38.64294 8.424733,60.98954 41.928188,60.98954 14.637578,0 31.291778,-3.77322 31.291778,-3.77322 z"/>
    <path d="m 174.84023,98.427908 c -22.50918,0 -33.69872,14.442322 -33.69872,44.693002 0,28.52697 8.42473,45.18117 33.17828,45.18117 12.7184,0 25.07893,-3.93581 25.07893,-3.93581 l -0.68324,-17.01205 c 0,0 -11.35212,1.0082 -17.53229,1.0082 -13.7268,0 -16.65419,-8.91249 -16.65419,-25.24151 0,-16.68667 3.41536,-24.75355 16.65419,-24.75355 6.18017,0 17.53229,1.20368 17.53229,1.20368 l 0.68324,-17.5325 c 0,0 -11.84009,-3.610632 -24.55849,-3.610632 z"/>
    <rect x="20" y="20" width="21" height="24" ry="2"/>
    <rect x="59" y="20" width="21" height="24" ry="2"/>
    <rect x="98" y="20" width="21" height="24" ry="2"/>
    <rect x="137" y="20" width="21" height="24" ry="2"/>
    <rect x="176" y="20" width="21" height="24" ry="2"/>
    <rect x="215" y="20" width="21" height="24" ry="2"/>
    <rect x="20" y="212" width="21" height="24" ry="2"/>
    <rect x="59" y="212" width="21" height="24" ry="2"/>
    <rect x="98" y="212" width="21" height="24" ry="2"/>
    <rect x="137" y="212" width="21" height="24" ry="2"/>
    <rect x="176" y="212" width="21" height="24" ry="2"/>
    <rect x="215" y="212" width="21" height="24" ry="2"/>
  </g>
</svg>
