<svg xmlns="http://www.w3.org/2000/svg" width="256" height="256">
  <!--<path fill="#000000" d="M 0 0 L 0 256 L 256 256 L 256 0 L 0 0 z M 16 6 L 30 6 C 32.77 6 35 8.23 35 11 L 35 31 C 35 33.77 32.77 36 30 36 L 16 36 C 13.23 36 11 33.77 11 31 L 11 11 C 11 8.23 13.23 6 16 6 z M 58 6 L 72 6 C 74.77 6 77 8.23 77 11 L 77 31 C 77 33.77 74.77 36 72 36 L 58 36 C 55.23 36 53 33.77 53 31 L 53 11 C 53 8.23 55.23 6 58 6 z M 100 6 L 114 6 C 116.77 6 119 8.23 119 11 L 119 31 C 119 33.77 116.77 36 114 36 L 100 36 C 97.23 36 95 33.77 95 31 L 95 11 C 95 8.23 97.23 6 100 6 z M 142 6 L 156 6 C 158.77 6 161 8.23 161 11 L 161 31 C 161 33.77 158.77 36 156 36 L 142 36 C 139.23 36 137 33.77 137 31 L 137 11 C 137 8.23 139.23 6 142 6 z M 184 6 L 198 6 C 200.77 6 203 8.23 203 11 L 203 31 C 203 33.77 200.77 36 198 36 L 184 36 C 181.23 36 179 33.77 179 31 L 179 11 C 179 8.23 181.23 6 184 6 z M 226 6 L 240 6 C 242.77 6 245 8.23 245 11 L 245 31 C 245 33.77 242.77 36 240 36 L 226 36 C 223.23 36 221 33.77 221 31 L 221 11 C 221 8.23 223.23 6 226 6 z M 16 220 L 30 220 C 32.77 220 35 222.23 35 225 L 35 245 C 35 247.77 32.77 250 30 250 L 16 250 C 13.23 250 11 247.77 11 245 L 11 225 C 11 222.23 13.23 220 16 220 z M 58 220 L 72 220 C 74.77 220 77 222.23 77 225 L 77 245 C 77 247.77 74.77 250 72 250 L 58 250 C 55.23 250 53 247.77 53 245 L 53 225 C 53 222.23 55.23 220 58 220 z M 100 220 L 114 220 C 116.77 220 119 222.23 119 225 L 119 245 C 119 247.77 116.77 250 114 250 L 100 250 C 97.23 250 95 247.77 95 245 L 95 225 C 95 222.23 97.23 220 100 220 z M 142 220 L 156 220 C 158.77 220 161 222.23 161 225 L 161 245 C 161 247.77 158.77 250 156 250 L 142 250 C 139.23 250 137 247.77 137 245 L 137 225 C 137 222.23 139.23 220 142 220 z M 184 220 L 198 220 C 200.77 220 203 222.23 203 225 L 203 245 C 203 247.77 200.77 250 198 250 L 184 250 C 181.23 250 179 247.77 179 245 L 179 225 C 179 222.23 181.23 220 184 220 z M 226 220 L 240 220 C 242.77 220 245 222.23 245 225 L 245 245 C 245 247.77 242.77 250 240 250 L 226 250 C 223.23 250 221 247.77 221 245 L 221 225 C 221 222.23 223.23 220 226 220 z" />-->
  <rect fill="#000000" x="0" y="0" width="256" height="256" ry="5" />
  <path fill="#FFFFFF" d="m 129.91353,168.72767 c 0,0 -19.58386,2.10723 -28.81248,2.10723 -19.765473,0 -24.779624,-15.914 -24.779624,-45.08993 0,-32.264228 6.939774,-43.96376 24.016674,-43.96376 9.99157,0 29.57543,2.289074 29.57543,2.289074 l 1.1264,-20.746305 c 0,0 -21.47321,-4.614425 -35.134641,-4.614425 -32.9909,0 -46.83394,19.220412 -46.83394,67.035416 0,43.16431 9.410458,68.12554 46.83394,68.12554 16.350231,0 34.953031,-4.2147 34.953031,-4.2147 z" />
  <path fill="#FFFFFF" d="m 182.70734,93.480742 c -25.14284,0 -37.6416,16.132118 -37.6416,49.922238 0,31.86473 9.41046,50.46753 37.06026,50.46753 14.2065,0 28.01326,-4.39631 28.01326,-4.39631 l -0.76318,-19.00252 c 0,0 -12.68036,1.12616 -19.58363,1.12616 -15.33289,0 -18.6028,-9.95528 -18.6028,-28.19486 0,-18.63907 3.81497,-27.64981 18.6028,-27.64981 6.90327,0 19.58363,1.34452 19.58363,1.34452 l 0.76318,-19.58386 c 0,0 -13.22543,-4.033088 -27.43192,-4.033088 z" />
  <rect fill="#FFFFFF" x="11" y="6" width="24" height="30" ry="2" />
  <rect fill="#FFFFFF" x="53" y="6" width="24" height="30" ry="2" />
  <rect fill="#FFFFFF" x="95" y="6" width="24" height="30" ry="2" />
  <rect fill="#FFFFFF" x="137" y="6" width="24" height="30" ry="2" />
  <rect fill="#FFFFFF" x="179" y="6" width="24" height="30" ry="2" />
  <rect fill="#FFFFFF" x="221" y="6" width="24" height="30" ry="2" />
  <rect fill="#FFFFFF" x="11" y="220" width="24" height="30" ry="2" />
  <rect fill="#FFFFFF" x="53" y="220" width="24" height="30" ry="2" />
  <rect fill="#FFFFFF" x="95" y="220" width="24" height="30" ry="2" />
  <rect fill="#FFFFFF" x="137" y="220" width="24" height="30" ry="2" />
  <rect fill="#FFFFFF" x="179" y="220" width="24" height="30" ry="2" />
  <rect fill="#FFFFFF" x="221" y="220" width="24" height="30" ry="2" />
</svg>
