<svg xmlns="http://www.w3.org/2000/svg" width="16" height="16" viewBox="0 0 16 16">
  <defs>
    <clipPath id="cutout">
      <path d="M 0 0 H 16 V 16 H 0 Z M 5.5 12.5 a 4 4 0 0 0 0 -8"/>
    </clipPath>
  </defs>
  <path fill="#CED0D6" d="M 0,1 V 15 H 16 V 1 Z M 1,2 H 15 V 14 H 1 Z"/>
  <path fill="#548AF7" clip-path="url(#cutout)" d="M 6 4 h 6 v 6 h -6 Z M 7 5 v 1 h 4 v -1 Z M 7 7 v 1 h 4 v -1 Z"/>
  <path fill="#548AF7" fill-rule="evenodd" d="M 5.5 6 a 2.5 2.5 0 0 1 0 5 a 2.5 2.5 0 0 1 0 -5 M 5.5 7 a 1.5 1.5 0 0 1 0 3 a 1.5 1.5 0 0 1 0 -3"/>
  <rect fill="#548AF7" x="6.5" y="9.5" width="1" height="3" transform="rotate(-45 7 10)"/>
</svg>