<svg xmlns="http://www.w3.org/2000/svg" width="16" height="16" viewBox="0 0 16 16">
  <path fill="#CED0D6" d="M 0,1 V 15 H 16 V 1 Z M 1,2 H 15 V 14 H 1 Z"/>
  <path fill="#548AF7" d="m 7.5981866,3.6757159 -0.00195,-0.00112 2.8522514,-0.1008619 -0.0081,0.6807245 -0.9769165,0.4629692 -1.5076643,1.4680267 2.2518808,2.2518805 0.673153,0.069676 2.368732,2.3687321 -2.112169,2.11217 L 8.7681238,10.618586 8.6963308,9.9433157 6.4361333,7.6831181 6.3446314,8.1803968 6.2114165,8.4834724 4.6117826,10.083106 2.8015063,8.27283 4.3142873,6.760049 4.7643411,6.6001064 4.764719,6.6003429 C 4.7409049,6.4479323 4.7877129,6.2866234 4.905143,6.1691933 L 7.2672359,3.8071004 Z"/>
</svg>