<svg xmlns="http://www.w3.org/2000/svg" width="16" height="16" viewBox="0 0 16 16">
  <path fill="#AFB1B3" d="M 7.779682,10 6.9003753,7.4515471 H 3.0851832 L 2.2058768,10 H 0.1045644 L 3.7557986,0 H 6.2297599 L 9.851236,10 Z M 4.9927792,1.5499218 4.9480461,1.6990004 Q 4.8735545,1.9523292 4.769209,2.2801496 4.6798381,2.6080653 3.5620822,5.8718668 H 6.4234763 L 5.4399198,2.9954981 5.1417625,2.0268208 Z" transform="translate(0.8 3) scale(0.8)"/>
  <path fill="#AFB1B3" d="M 7.779682,10 6.9003753,7.4515471 H 3.0851832 L 2.2058768,10 H 0.1045644 L 3.7557986,0 H 6.2297599 L 9.851236,10 Z M 4.9927792,1.5499218 4.9480461,1.6990004 Q 4.8735545,1.9523292 4.769209,2.2801496 4.6798381,2.6080653 3.5620822,5.8718668 H 6.4234763 L 5.4399198,2.9954981 5.1417625,2.0268208 Z" transform="translate(9.3 5) scale(0.6)"/>
  <rect fill="#AFB1B3" x="0" y="12" width="16" height="2"/>
</svg>